<svg width="32" height="32" viewBox="0 0 100 100" fill="none" xmlns="http://www.w3.org/2000/svg">
  <path
    d="M 25 80 L 25 43 A 18 18 0 0 1 43 25 L 55 25 A 18 18 0 0 1 67.728 55.728 L 53.728 69.728 A 6 6 0 0 1 45.242 61.242 L 59.242 47.242 A 6 6 0 0 1 55 37 L 43 37 A 6 6 0 0 1 37 43 L 37 68 L 25 80 Z"
    fill="#E76F51"
  />
  <path
    d="M 25 80 L 25 43 A 18 18 0 0 1 43 25 L 55 25 A 18 18 0 0 1 67.728 55.728 L 53.728 69.728 A 6 6 0 0 1 45.242 61.242 L 59.242 47.242 A 6 6 0 0 1 55 37 L 43 37 A 6 6 0 0 1 37 43 L 37 68 L 25 80 Z"
    fill="#2A9D8F"
    transform="rotate(180 50 50)"
  />
</svg>
